<svg xmlns="http://www.w3.org/2000/svg" width="256" height="256"><path fill="#1976D2" fill-opacity=".059" fill-rule="evenodd" d="M0 128.004v128.004l128.25-.254 128.25-.254.254-127.75L257.008 0H0v128.004m.485.496c0 70.4.119 99.053.265 63.672.146-35.38.146-92.98 0-128C.604 29.153.485 58.1.485 128.5"/><path fill="#1976D2" fill-opacity=".133" fill-rule="evenodd" d="M106 7.49c-24.794 4.689-45.573 15.83-64.129 34.383C25.292 58.449 15.528 75.211 9.286 97.809 6.785 106.863 6.609 108.847 6.612 128c.003 18.913.203 21.236 2.584 30 10.179 37.464 37.018 68.662 71.373 82.964 45.589 18.979 97.992 9.003 132.689-25.261 18.655-18.422 30.59-40.518 35.342-65.428 1.955-10.247 2.225-31.473.528-41.423-8.231-48.259-43.615-87.034-90.834-99.539-8.386-2.221-12.31-2.64-27.294-2.917-12.162-.225-19.788.108-25 1.094m9.847 15.549c-34.671 4.047-66.338 26.116-81.906 57.079-2.168 4.311-3.941 7.96-3.942 8.11 0 .15 10.262.144 22.805-.013l22.805-.285 9.426-9.465L94.46 69h34.77c31.747 0 34.77-.144 34.77-1.662 0-3.719 4.963-10.142 9.554-12.364 11.778-5.702 24.785 2.826 24.819 16.272.014 5.719-3.943 12.02-9.357 14.901-9.233 4.911-22.073-.557-24.558-10.458L163.783 73H96.46L87 82.5 77.54 92H53.305c-22.067 0-24.316.157-25.145 1.75-.851 1.635-3.168 10.577-4.664 18l-.655 3.25h53.681L93.5 132l16.978 17h26.761c24.923 0 26.761-.121 26.761-1.768 0-3.031 4.889-9.135 8.994-11.229 13.215-6.741 28.733 5.157 24.967 19.143-3.275 12.16-16.5 17.539-26.418 10.743-3.533-2.421-7.543-8.415-7.543-11.275 0-1.447-2.881-1.614-27.761-1.614h-27.761L91.5 136l-16.978-17H23.123l-.663 4.417c-.813 5.425.896 21.647 3.275 31.083l1.765 7 9.618.285 9.618.284.579-2.895C48.641 152.547 56.336 147 64.205 147c5.688 0 12.784 4.35 15.117 9.266 5.519 11.63-2.957 25.792-15.388 25.712-7.448-.048-14.982-5.757-16.851-12.769-.701-2.633-.952-2.717-8.902-2.999-5.593-.199-8.181.067-8.181.841 0 2.264 9.117 18.616 13.975 25.065 21.538 28.592 59.062 44.949 94.275 41.093 25.974-2.844 48.983-14.08 66.5-32.473 3.438-3.61 6.25-6.827 6.25-7.149 0-.323-18.113-.585-40.25-.583l-40.25.003-1.846 4.488c-1.015 2.469-3.173 5.605-4.795 6.97-16.374 13.778-38.73-9.284-24.045-24.804 3.863-4.084 7.43-5.661 12.798-5.661 6.948 0 12.687 3.687 15.591 10.018l2.285 4.982h84.424l4.242-7.25c10.578-18.081 16.185-41.967 14.378-61.25l-.703-7.5-37.664.004-37.665.003-2.5 5.247c-5.274 11.067-17.933 14.134-26.67 6.462-8.32-7.304-8.606-18.393-.669-25.902 9.137-8.646 22.824-5.47 27.805 6.45l1.561 3.736h37.486c21.177 0 37.487-.386 37.487-.888 0-2.142-5.104-18.147-7.527-23.602-6.878-15.486-22.443-34.097-36.35-43.463-14.506-9.769-31.573-16.045-49.085-18.052-9.538-1.093-13.51-1.086-23.191.044m58.457 35.917c-4.455 2.717-6.637 6.476-6.637 11.436 0 8.011 5.499 13.608 13.369 13.608 11.206 0 17.666-12.753 10.849-21.419-4.414-5.612-11.818-7.139-17.581-3.625m-42.392 41.324c-4.191 2.825-5.879 6.038-5.894 11.22-.028 10.43 10.612 16.665 19.92 11.673 3.85-2.065 7.062-7.268 7.062-11.44 0-10.964-12.078-17.524-21.088-11.453m41.398 39.797c-4.46 2.857-6.833 9.268-5.4 14.589 3 11.14 16.799 13.876 23.975 4.753 4.641-5.9 2.984-15.483-3.354-19.4-4.295-2.655-11.026-2.629-15.221.058m-117 12.94c-4.491 2.961-6.999 9.739-5.481 14.807 3.367 11.238 18.325 13.66 24.535 3.974 3.145-4.905 2.415-11.977-1.699-16.467-2.904-3.168-4.036-3.689-8.75-4.028-4.271-.307-6.089.055-8.605 1.714m48.305 27.071c-7.915 6.226-7.147 18.476 1.447 23.085 4.235 2.271 8.099 2.319 12.655.157 5.275-2.503 7.48-6.679 6.993-13.245-.349-4.705-.878-5.851-4.041-8.75-3.182-2.916-4.316-3.335-9.019-3.335-3.942 0-6.09.558-8.035 2.088"/><path fill="#1976D2" fill-opacity=".433" fill-rule="evenodd" d="M108.097 7.547C46.919 18.27 3.83 71.396 6.345 133c3.647 89.349 98.475 144.341 178.041 103.247 46.549-24.042 72.532-76.04 64.07-128.22-7.955-49.048-46.082-88.779-95.598-99.62-10.346-2.265-34.136-2.722-44.761-.86m1.558 15.984c-33.138 6.267-61.63 27.559-76.527 57.19-1.72 3.422-3.128 6.685-3.128 7.25C30 88.646 37.835 89 52.769 89h22.769L85.5 79l9.962-10h68.321l.686-2.75c.944-3.78 5.045-8.947 8.533-10.751 1.594-.824 5.329-1.499 8.3-1.499 8.792 0 15.47 5.802 16.425 14.267 1.472 13.061-10.712 22.924-22.493 18.21-4.972-1.989-9.772-7.096-10.718-11.403L163.841 72H96.462L86.5 82l-9.962 10H28.155l-1.051 3.25c-1.668 5.157-4.073 16.038-4.089 18.5L23 116h53.522L93.5 133l16.978 17h53.363l.684-3.112c1.009-4.596 6.956-10.671 11.695-11.947 16.369-4.408 28.902 15.619 17.463 27.904-5.007 5.378-14.107 7.056-20.458 3.771-3.685-1.905-7.791-7.001-8.756-10.866l-.686-2.75h-54.305L92.5 136l-16.978-17H21.713l.574 12.75c.379 8.414 1.363 15.811 2.894 21.75l2.319 9 9.618.285 9.618.284.634-3.168c.363-1.815 2.457-4.991 4.905-7.439 3.321-3.321 5.284-4.423 8.822-4.954 7.543-1.131 15.588 3.302 18.532 10.21 4.071 9.553-1.434 20.537-11.674 23.294-7.97 2.146-17.75-3.257-20.101-11.105L46.683 166H29.05l.926 2.438c5.85 15.386 20.715 34.228 35.877 45.475 26.538 19.687 64.249 25.473 95.826 14.703 16.832-5.741 35.349-17.91 45.714-30.043l4.781-5.595-41.265.261-41.266.261-.774 2.896c-.896 3.351-5.172 8.157-9.069 10.193-3.51 1.834-11.136 1.806-14.731-.053-16.419-8.491-9.728-33.555 8.609-32.252 7.877.56 12.969 5.085 15.718 13.966.504 1.63 3.413 1.75 42.522 1.75h41.98l2.465-3.25c6.542-8.627 13.726-26.68 16.169-40.631 1.472-8.405 1.967-26.654.838-30.869l-.603-2.25H156.25l-.592 2.961c-.92 4.598-6.974 10.629-11.92 11.875-10.721 2.699-21.638-5.533-21.716-16.374-.053-7.392 7.038-15.632 14.686-17.067 7.483-1.404 16.785 4.357 18.89 11.699l.976 3.406 37.713.262 37.713.262v-2.46c0-4.281-5.041-18.74-9.68-27.766-13.842-26.93-38.635-46.806-67.843-54.388-12.687-3.293-32.871-4.14-44.822-1.879m63.765 35.355c-5.998 3.657-8.157 12.753-4.464 18.81 5.596 9.178 17.775 9.386 23.774.406 4.227-6.327 2.348-15.254-4.029-19.142-4.136-2.523-11.21-2.557-15.281-.074m-40.213 40.106c-3.397 1.542-4.721 2.916-6.342 6.581-2.757 6.231-1.88 10.647 3.1 15.628 3.476 3.475 4.267 3.799 9.282 3.799 8.66 0 13.753-5.323 13.753-14.374 0-5.246-3.405-10.062-8.671-12.262-4.299-1.796-5.991-1.701-11.122.628m41.813 39.706c-13.288 6.882-8.783 26.311 6.098 26.298 7.946-.007 13.887-6.063 13.878-14.147-.011-9.73-11.342-16.623-19.976-12.151M59.643 150.997c-8.368 2.599-12.286 13.156-7.683 20.704 5.432 8.91 19.954 8.323 24.37-.984 2.033-4.285 2.114-7.719.283-12.1-2.534-6.067-10.482-9.635-16.97-7.62M106 178.895c-12.33 6.76-7.653 26.088 6.316 26.101 10.178.01 16.755-9.284 13.185-18.633-3.043-7.968-12.196-11.473-19.501-7.468"/><path fill="#1976D2" fill-opacity=".203" fill-rule="evenodd" d="M118 6.644C63.284 11.67 18.784 51.891 8.378 105.725c-2.26 11.689-2.26 32.861 0 44.55 4.667 24.145 16.495 46.56 33.552 63.584 59.011 58.899 157.874 42.824 195.116-31.725 19.718-39.472 16.192-86.789-9.231-123.872-17.03-24.839-46.621-43.998-76.733-49.679-8.27-1.56-25.933-2.596-33.082-1.939m-12.098 17.311c-31.522 6.65-60.846 29.99-74.385 59.205l-2.475 5.34 23.192.269 23.192.269 9.555-9.519L94.536 70h69.387l1.017-3.75c1.233-4.549 5.185-8.986 9.671-10.861 14.118-5.899 28.215 9.096 21.203 22.552-3.506 6.729-6.652 8.559-14.715 8.559-5.791 0-7.258-.384-10.28-2.689-3.165-2.414-4.361-4.357-6.194-10.061-.521-1.621-3.053-1.75-34.363-1.75H96.46L87 81.5 77.54 91H53.392c-19.236 0-24.379.279-25.285 1.371-1.063 1.281-4.232 13.028-5.497 20.379l-.56 3.25h54.472L93.5 133l16.978 17h26.792c24.636 0 26.838-.141 27.355-1.75 1.833-5.704 3.029-7.647 6.194-10.061 3.022-2.305 4.489-2.689 10.28-2.689 8.063 0 11.209 1.83 14.715 8.559 2.729 5.237 2.422 11.205-.85 16.5-2.344 3.793-9.116 7.441-13.812 7.441-7.235 0-14.348-5.374-16.212-12.25l-1.017-3.75h-55.445L91.5 135l-16.978-17H22v10.816c0 11.12.945 18.401 3.69 28.434l1.574 5.75 9.618-.004 9.618-.003 2.5-5.21c3.177-6.621 6.473-8.992 13.284-9.557 10.182-.844 17.883 5.817 18.01 15.58.085 6.532-2.659 11.737-7.762 14.728-8.893 5.212-19.081 2.06-23.532-7.28l-2.5-5.247-8.817-.003c-10.328-.005-10.164-.568-3.506 11.996 13.412 25.313 37.093 44.411 64.974 52.399 18.239 5.226 37.591 5.399 56.605.507 9.862-2.538 27.816-11.342 36.337-17.819 6.851-5.208 19.907-18.394 19.907-20.106 0-.626-14.99-.981-41.389-.981h-41.388l-.638 3.399c-.867 4.621-4.117 8.484-9.006 10.705-5.164 2.345-8.999 2.342-14.178-.009-10.124-4.598-12.523-17.526-4.833-26.039 5.607-6.206 14.666-7.225 21.928-2.467 2.415 1.583 6.504 8.37 6.504 10.797 0 1.46 4.088 1.614 42.896 1.614h42.896l3.062-4.772c4.881-7.607 10.826-21.072 13.034-29.524 2.829-10.824 4.332-26.654 3.392-35.704l-.78-7.5-38.27-.262-38.27-.262-1.001 2.762c-1.9 5.246-3.451 7.535-6.871 10.144-4.577 3.491-14.392 3.766-18.765.526-10.183-7.546-9.896-21.062.599-28.134 3.989-2.689 11.628-3.075 16.009-.81 3.805 1.968 7.751 6.811 8.564 10.512l.664 3.024h38.42c21.132 0 38.413-.338 38.404-.75-.01-.412-.841-3.9-1.847-7.75-10.246-39.192-42.005-69.384-81.636-77.606-11.921-2.474-31.716-2.446-43.598.061m69.548 33.399C161.347 63.739 165.615 85 181 85c7.935 0 14.333-6.552 14.333-14.676 0-9.708-11.097-16.947-19.883-12.97m-43.209 41.641c-9.876 6.021-9.441 20.119.779 25.253 6.982 3.508 14.738 1.083 18.714-5.852 2.73-4.762 2.855-8.819.414-13.412-3.969-7.468-13.016-10.191-19.907-5.989m42.015 39.65c-4.522 2.229-7.423 7.312-7.423 13.008 0 7.914 6.071 13.847 14.167 13.847 7.971 0 14.127-5.916 14.244-13.688.169-11.197-10.899-18.141-20.988-13.167M56.984 151.818c-4.759 2.484-8.369 9.615-7.422 14.663 1.379 7.35 8.787 13.138 15.639 12.219 7.785-1.044 12.789-6.861 12.795-14.873.009-10.399-11.496-16.974-21.012-12.009m48.32 27.138c-10.047 6.126-9.269 19.978 1.413 25.149 12.385 5.996 25.422-8.164 18.288-19.864-4.169-6.839-13.186-9.257-19.701-5.285"/></svg>