<svg xmlns="http://www.w3.org/2000/svg" xml:space="preserve" width="600" height="380.818" viewBox="135.954 177.615 228.091 144.769"><path d="M0 5.161a5.161 5.161 0 1 1 10.322 0A5.161 5.161 0 0 1 0 5.161z" style="stroke:none;stroke-width:1;stroke-dasharray:none;stroke-linecap:butt;stroke-dashoffset:0;stroke-linejoin:miter;stroke-miterlimit:4;fill:none;fill-rule:nonzero;opacity:1" transform="rotate(179.931 106.614 147.03) scale(2.52324)" vector-effect="non-scaling-stroke"/><path d="M0 5.16a5.16 5.16 0 1 1 10.32 0A5.16 5.16 0 0 1 0 5.16z" style="stroke:none;stroke-width:1;stroke-dasharray:none;stroke-linecap:butt;stroke-dashoffset:0;stroke-linejoin:miter;stroke-miterlimit:4;fill:none;fill-rule:nonzero;opacity:1" transform="rotate(179.931 141.6 122.468) scale(2.52324)" vector-effect="non-scaling-stroke"/><path d="M0 5.16a5.16 5.16 0 1 1 10.32 0A5.16 5.16 0 0 1 0 5.16z" style="stroke:none;stroke-width:1;stroke-dasharray:none;stroke-linecap:butt;stroke-dashoffset:0;stroke-linejoin:miter;stroke-miterlimit:4;fill:none;fill-rule:nonzero;opacity:1" transform="rotate(180 160.948 103.553) scale(2.52324)" vector-effect="non-scaling-stroke"/><path d="M0 5.16a5.16 5.16 0 1 1 10.32 0A5.16 5.16 0 0 1 0 5.16z" style="stroke:none;stroke-width:1;stroke-dasharray:none;stroke-linecap:butt;stroke-dashoffset:0;stroke-linejoin:miter;stroke-miterlimit:4;fill:none;fill-rule:nonzero;opacity:1" transform="rotate(180 129.189 159.468) scale(2.52324)" vector-effect="non-scaling-stroke"/><path d="M0 5.161a5.16 5.16 0 1 1 10.318 0A5.16 5.16 0 1 1 0 5.161z" style="stroke:none;stroke-width:1;stroke-dasharray:none;stroke-linecap:butt;stroke-dashoffset:0;stroke-linejoin:miter;stroke-miterlimit:4;fill:none;fill-rule:nonzero;opacity:1" transform="rotate(180 160.947 140.969) scale(2.52324)" vector-effect="non-scaling-stroke"/><path d="M5.585 28.425H45.54c.296 3.217 3.007 5.745 6.3 5.745a6.336 6.336 0 0 0 6.329-6.33 6.336 6.336 0 0 0-6.329-6.329c-3.293 0-6.003 2.528-6.3 5.744H5.585a.585.585 0 0 0 0 1.17zM51.84 22.68A5.166 5.166 0 0 1 57 27.84 5.166 5.166 0 0 1 51.84 33a5.166 5.166 0 0 1-5.16-5.16 5.166 5.166 0 0 1 5.16-5.16zm-9.836 40.817c3.49 0 6.33-2.839 6.33-6.329a6.336 6.336 0 0 0-6.33-6.33c-3.293 0-6.004 2.528-6.3 5.745H5.585a.584.584 0 1 0 0 1.169h30.118c.297 3.217 3.007 5.745 6.301 5.745zm0-11.49a5.166 5.166 0 0 1 5.16 5.16 5.166 5.166 0 0 1-5.16 5.16 5.166 5.166 0 0 1-5.16-5.16 5.165 5.165 0 0 1 5.16-5.16zm52.411 12.311H65.202a.581.581 0 0 0-.413.171l-7.086 7.084H32.965a6.335 6.335 0 0 0-6.3-5.744 6.335 6.335 0 0 0-6.327 6.329c0 3.491 2.838 6.331 6.327 6.331 3.293 0 6.004-2.529 6.3-5.746h24.98a.585.585 0 0 0 .413-.171l7.086-7.085h28.971a.584.584 0 1 0 0-1.169zM26.665 77.32a5.166 5.166 0 0 1-5.158-5.161 5.165 5.165 0 0 1 5.158-5.16 5.166 5.166 0 0 1 5.16 5.16 5.166 5.166 0 0 1-5.16 5.161z" style="stroke:none;stroke-width:1;stroke-dasharray:none;stroke-linecap:butt;stroke-dashoffset:0;stroke-linejoin:miter;stroke-miterlimit:4;fill:#fff;fill-rule:nonzero;opacity:1" transform="rotate(180 188.081 188.081) scale(2.52324)" vector-effect="non-scaling-stroke"/><path d="M94.415 54.483H65.641L53.246 42.091a.581.581 0 0 0-.413-.171H32.965c-.296-3.218-3.007-5.747-6.3-5.747-3.489 0-6.327 2.84-6.327 6.332a6.335 6.335 0 0 0 6.327 6.33c3.293 0 6.004-2.528 6.3-5.745h19.626l12.394 12.392c.11.109.258.171.414.171h29.016a.585.585 0 0 0 0-1.17zm-67.75-6.818a5.165 5.165 0 0 1-5.158-5.16 5.166 5.166 0 0 1 5.158-5.162 5.167 5.167 0 0 1 5.16 5.162 5.166 5.166 0 0 1-5.16 5.16zm43.069-3.634c3.293 0 6.004-2.529 6.3-5.746h18.381a.585.585 0 0 0 0-1.17H76.034c-.296-3.217-3.007-5.746-6.3-5.746-3.49 0-6.33 2.84-6.33 6.331.001 3.49 2.84 6.331 6.33 6.331zm0-11.492a5.166 5.166 0 0 1 5.16 5.161 5.166 5.166 0 0 1-5.16 5.161 5.166 5.166 0 0 1-5.16-5.161 5.166 5.166 0 0 1 5.16-5.161z" style="stroke:none;stroke-width:1;stroke-dasharray:none;stroke-linecap:butt;stroke-dashoffset:0;stroke-linejoin:miter;stroke-miterlimit:4;fill:#fff;fill-rule:nonzero;opacity:1" transform="rotate(180 188.081 188.081) scale(2.52324)" vector-effect="non-scaling-stroke"/></svg>