<svg xmlns="http://www.w3.org/2000/svg" xml:space="preserve" width="640" height="631"><g><g clip-path="url(#a)" transform="matrix(4.09 0 0 4.09 309.385 242.238)"><clipPath id="a"><circle r="29.12" transform="translate(2.69 -.72)"/></clipPath><path d="M314.62 114.43c1.98 0 3.58 1.61 3.58 3.58 0 1.98-1.6 3.58-3.58 3.58s-3.58-1.6-3.58-3.58 1.6-3.58 3.58-3.58Zm-47.02 9.02h20.27a.4.4 0 0 0 .29-.12l4.92-4.92h17.17a4.405 4.405 0 0 0 4.37 3.99c2.42 0 4.39-1.97 4.39-4.39s-1.97-4.39-4.39-4.39c-2.29 0-4.17 1.76-4.37 3.99h-17.34a.4.4 0 0 0-.29.12l-4.92 4.92h-20.11c-.22 0-.41.18-.41.41s.18.41.41.41Zm36.38 8.54c-1.98 0-3.58-1.6-3.58-3.58s1.6-3.58 3.58-3.58 3.58 1.6 3.58 3.58-1.6 3.58-3.58 3.58Zm0-7.97a4.39 4.39 0 1 0 4.37 4.79h20.9c.22 0 .41-.18.41-.41s-.18-.41-.41-.41h-20.9c-.21-2.23-2.09-3.99-4.37-3.99Zm-6.83 28.33c-1.98 0-3.58-1.6-3.58-3.58s1.6-3.58 3.58-3.58 3.58 1.6 3.58 3.58-1.6 3.58-3.58 3.58Zm32.1-3.99h-27.73c-.21-2.23-2.09-3.99-4.37-3.99-2.42 0-4.39 1.97-4.39 4.39s1.97 4.39 4.39 4.39c2.29 0 4.17-1.75 4.37-3.99h27.73c.22 0 .41-.18.41-.41s-.18-.41-.41-.41Z" style="stroke:none;stroke-width:0;stroke-dasharray:none;stroke-linecap:butt;stroke-dashoffset:0;stroke-linejoin:miter;stroke-miterlimit:4;fill:#fff;fill-rule:nonzero;opacity:1" transform="translate(-298.42 -133.38)"/></g><g clip-path="url(#b)" transform="matrix(4.09 0 0 4.09 287.626 260.725)"><clipPath id="b"><circle r="29.12" transform="translate(8.01 -5.25)"/></clipPath><path d="M284.73 145.51c-1.98 0-3.58-1.6-3.58-3.58s1.6-3.58 3.58-3.58 3.58 1.6 3.58 3.58-1.6 3.58-3.58 3.58Zm0-7.98c-2.29 0-4.17 1.76-4.37 3.99H267.6c-.22 0-.41.18-.41.41s.18.41.41.41h12.76c.21 2.23 2.09 3.99 4.37 3.99 2.42 0 4.39-1.97 4.39-4.39s-1.97-4.39-4.39-4.39Zm29.89-2.52c1.98 0 3.58 1.6 3.58 3.58s-1.6 3.58-3.58 3.58-3.58-1.61-3.58-3.58c0-1.98 1.6-3.58 3.58-3.58Zm-47.02-4.73h19.97l8.6 8.6a.4.4 0 0 0 .29.12h13.79c.21 2.23 2.09 3.99 4.37 3.99 2.42 0 4.39-1.97 4.39-4.39s-1.97-4.39-4.39-4.39c-2.29 0-4.17 1.75-4.37 3.99h-13.62l-8.6-8.6a.4.4 0 0 0-.29-.12H267.6c-.22 0-.41.18-.41.41s.18.41.41.41Z" style="stroke:none;stroke-width:0;stroke-dasharray:none;stroke-linecap:butt;stroke-dashoffset:0;stroke-linejoin:miter;stroke-miterlimit:4;fill:#fff;fill-rule:nonzero;opacity:1" transform="translate(-293.1 -137.91)"/></g><rect width="109.61" height="3.48" x="-54.805" y="-1.74" rx="0" ry="0" style="stroke:none;stroke-width:0;stroke-dasharray:none;stroke-linecap:butt;stroke-dashoffset:0;stroke-linejoin:miter;stroke-miterlimit:4;fill:#fff;fill-rule:nonzero;opacity:1" transform="matrix(4.09 0 0 4.09 319.365 87.105)"/><circle r="2.94" style="stroke:none;stroke-width:0;stroke-dasharray:none;stroke-linecap:butt;stroke-dashoffset:0;stroke-linejoin:miter;stroke-miterlimit:4;fill:#fff;fill-rule:nonzero;opacity:1" transform="matrix(4.09 0 0 4.09 427.954 46.736)"/><circle r="2.94" style="stroke:none;stroke-width:0;stroke-dasharray:none;stroke-linecap:butt;stroke-dashoffset:0;stroke-linejoin:miter;stroke-miterlimit:4;fill:#fff;fill-rule:nonzero;opacity:1" transform="matrix(4.09 0 0 4.09 466.687 46.736)"/><circle r="2.94" style="stroke:none;stroke-width:0;stroke-dasharray:none;stroke-linecap:butt;stroke-dashoffset:0;stroke-linejoin:miter;stroke-miterlimit:4;fill:#fff;fill-rule:nonzero;opacity:1" transform="matrix(4.09 0 0 4.09 505.46 46.736)"/><path d="M372.81 211.82H229.25c-3.53 0-6.41-2.88-6.41-6.41v-91.89c0-3.53 2.88-6.41 6.41-6.41h16.82v3.48h-16.82c-1.62 0-2.93 1.32-2.93 2.93v91.89c0 1.62 1.32 2.93 2.93 2.93h143.56c1.62 0 2.93-1.32 2.93-2.93v-91.89c0-1.62-1.32-2.93-2.93-2.93h-17.13v-3.48h17.13c3.53 0 6.41 2.88 6.41 6.41v91.89c0 3.53-2.88 6.41-6.41 6.41Z" style="stroke:none;stroke-width:0;stroke-dasharray:none;stroke-linecap:butt;stroke-dashoffset:0;stroke-linejoin:miter;stroke-miterlimit:4;fill:#fff;fill-rule:nonzero;opacity:1" transform="matrix(4.09 0 0 4.09 -911.153 -303.368)"/><rect width="152.9" height="3.48" x="-76.45" y="-1.74" rx="0" ry="0" style="stroke:none;stroke-width:0;stroke-dasharray:none;stroke-linecap:butt;stroke-dashoffset:0;stroke-linejoin:miter;stroke-miterlimit:4;fill:#fff;fill-rule:nonzero;opacity:1" transform="matrix(4.09 0 0 4.09 320.06 488.824)"/><path d="M350.05 228.47H252a1.741 1.741 0 0 1 0-3.48h98.05a1.741 1.741 0 0 1 0 3.48Z" style="stroke:none;stroke-width:0;stroke-dasharray:none;stroke-linecap:butt;stroke-dashoffset:0;stroke-linejoin:miter;stroke-miterlimit:4;fill:#fff;fill-rule:nonzero;opacity:1" transform="matrix(4.09 0 0 4.09 -911.153 -303.327)"/><path d="M332.28 228.47h-61.64v-20.13h61.64v20.13Zm-58.16-3.48h54.68v-13.17h-54.68v13.17ZM269.99 161.63c-.96 0-1.74-.78-1.74-1.74v-8.18a1.741 1.741 0 0 1 3.48 0v8.18c0 .96-.78 1.74-1.74 1.74Z" style="stroke:none;stroke-width:0;stroke-dasharray:none;stroke-linecap:butt;stroke-dashoffset:0;stroke-linejoin:miter;stroke-miterlimit:4;fill:#fff;fill-rule:nonzero;opacity:1" transform="matrix(4.09 0 0 4.09 -911.153 -303.327)"/><path d="M274.08 157.55h-8.18a1.741 1.741 0 0 1 0-3.48h8.18a1.741 1.741 0 0 1 0 3.48ZM260.5 126.63c-.96 0-1.74-.78-1.74-1.74v-8.18a1.741 1.741 0 0 1 3.48 0v8.18c0 .96-.78 1.74-1.74 1.74Z" style="stroke:none;stroke-width:0;stroke-dasharray:none;stroke-linecap:butt;stroke-dashoffset:0;stroke-linejoin:miter;stroke-miterlimit:4;fill:#fff;fill-rule:nonzero;opacity:1" transform="matrix(4.09 0 0 4.09 -911.153 -303.327)"/><path d="M264.59 122.54h-8.18a1.741 1.741 0 0 1 0-3.48h8.18a1.741 1.741 0 0 1 0 3.48ZM341.74 114.67c-.96 0-1.74-.78-1.74-1.74v-8.18a1.741 1.741 0 0 1 3.48 0v8.18c0 .96-.78 1.74-1.74 1.74Z" style="stroke:none;stroke-width:0;stroke-dasharray:none;stroke-linecap:butt;stroke-dashoffset:0;stroke-linejoin:miter;stroke-miterlimit:4;fill:#fff;fill-rule:nonzero;opacity:1" transform="matrix(4.09 0 0 4.09 -911.153 -303.327)"/><path d="M345.83 110.58h-8.18a1.741 1.741 0 0 1 0-3.48h8.18a1.741 1.741 0 0 1 0 3.48ZM336.88 152.64c-.96 0-1.74-.78-1.74-1.74v-8.18a1.741 1.741 0 0 1 3.48 0v8.18c0 .96-.78 1.74-1.74 1.74Z" style="stroke:none;stroke-width:0;stroke-dasharray:none;stroke-linecap:butt;stroke-dashoffset:0;stroke-linejoin:miter;stroke-miterlimit:4;fill:#fff;fill-rule:nonzero;opacity:1" transform="matrix(4.09 0 0 4.09 -911.153 -303.327)"/><path d="M340.97 148.55h-8.18a1.741 1.741 0 0 1 0-3.48h8.18a1.741 1.741 0 0 1 0 3.48ZM301.11 163.83c-17.19 0-31.17-13.98-31.17-31.17s13.98-31.17 31.17-31.17 31.17 13.98 31.17 31.17-13.98 31.17-31.17 31.17Zm0-58.24c-14.93 0-27.07 12.14-27.07 27.07s12.14 27.07 27.07 27.07 27.07-12.14 27.07-27.07-12.14-27.07-27.07-27.07Z" style="stroke:none;stroke-width:0;stroke-dasharray:none;stroke-linecap:butt;stroke-dashoffset:0;stroke-linejoin:miter;stroke-miterlimit:4;fill:#fff;fill-rule:nonzero;opacity:1" transform="matrix(4.09 0 0 4.09 -911.153 -303.327)"/><path d="M261.68 185.22c-.53 0-1.05-.14-1.52-.43-.9-.54-1.44-1.49-1.44-2.54v-10.09s-.04-.08-.08-.08h-6.95c-4.06 0-7.36-3.3-7.36-7.36V81.71c0-4.06 3.3-7.36 7.36-7.36h98.37c4.06 0 7.36 3.3 7.36 7.36v83.01c0 4.06-3.3 7.36-7.36 7.36h-61.81c-.78 0-1.56.19-2.25.56l-22.92 12.22c-.44.24-.92.35-1.4.35Zm-10-107.39c-2.14 0-3.88 1.74-3.88 3.88v83.01c0 2.14 1.74 3.88 3.88 3.88h6.95c1.97 0 3.56 1.6 3.56 3.56v9.23l22.17-11.82c1.19-.64 2.54-.97 3.88-.97h61.81c2.14 0 3.88-1.74 3.88-3.88V81.71c0-2.14-1.74-3.88-3.88-3.88h-98.37Z" style="stroke:none;stroke-width:0;stroke-dasharray:none;stroke-linecap:butt;stroke-dashoffset:0;stroke-linejoin:miter;stroke-miterlimit:4;fill:#fff;fill-rule:nonzero;opacity:1" transform="matrix(4.09 0 0 4.09 -911.153 -303.286)"/><circle r="2.94" style="stroke:none;stroke-width:0;stroke-dasharray:none;stroke-linecap:butt;stroke-dashoffset:0;stroke-linejoin:miter;stroke-miterlimit:4;fill:#fff;fill-rule:nonzero;opacity:1" transform="matrix(4.09 0 0 4.09 320.06 523.63)"/></g></svg>