<svg xmlns="http://www.w3.org/2000/svg" xml:space="preserve" width="640" height="68"><g><path d="M69.6 258.29c6.1 0 11.02 1.98 15.04 6.05.58.59 1.37.92 2.21.92 1.77 0 3.11-1.34 3.11-3.11 0-.83-.32-1.61-.91-2.2-5.17-5.17-11.72-7.79-19.46-7.79s-14.22 2.63-19.42 7.83c-5.2 5.2-7.83 11.73-7.83 19.42s2.63 14.22 7.83 19.42c5.2 5.2 11.73 7.83 19.42 7.83s14.29-2.62 19.46-7.8c.58-.58.9-1.36.9-2.19 0-1.77-1.34-3.11-3.11-3.11-.84 0-1.62.32-2.21.92-4.02 4.07-8.94 6.05-15.04 6.05s-11.04-1.97-15.09-6.02c-4.05-4.05-6.02-8.99-6.02-15.09s1.97-11.04 6.02-15.09c4.05-4.05 8.99-6.02 15.09-6.02Z" style="stroke:none;stroke-width:0;stroke-dasharray:none;stroke-linecap:butt;stroke-dashoffset:0;stroke-linejoin:miter;stroke-miterlimit:4;fill:#fff;fill-rule:nonzero;opacity:1" transform="matrix(1.24 0 0 1.24 -51.51 -312.656)"/><path d="M132.43 252.15c-1.77 0-3.11 1.34-3.11 3.11v21.03h-28.37v-21.03c0-1.77-1.3-3.11-3.03-3.11s-3.11 1.34-3.11 3.11v48.28c0 1.77 1.32 3.11 3.07 3.11s3.07-1.34 3.07-3.11v-21.03h28.37v21.03c0 1.77 1.34 3.11 3.11 3.11s3.11-1.34 3.11-3.11v-48.28c0-1.77-1.34-3.11-3.11-3.11Z" style="stroke:none;stroke-width:0;stroke-dasharray:none;stroke-linecap:butt;stroke-dashoffset:0;stroke-linejoin:miter;stroke-miterlimit:4;fill:#fff;fill-rule:nonzero;opacity:1" transform="matrix(1.24 0 0 1.24 -51.498 -312.668)"/><path d="M166.27 254.02s-.04-.1-.07-.14c-.54-1.08-1.6-1.72-2.83-1.72s-2.22.64-2.76 1.72c-.02.05-.05.1-.07.14l-20.55 48.11c-.25.42-.39.91-.39 1.41 0 1.77 1.34 3.11 3.11 3.11 1.19 0 2.22-.65 2.76-1.73.02-.05.04-.09.06-.14l17.84-41.69 17.91 41.7s.04.09.06.14c.54 1.08 1.57 1.73 2.76 1.73 1.77 0 3.11-1.34 3.11-3.11 0-.5-.13-.98-.38-1.4l-20.56-48.12ZM243.32 254.02s-.04-.09-.07-.14c-.54-1.08-1.57-1.72-2.83-1.72s-2.38.78-2.8 1.98l-10.04 23.32-10.03-23.44s-.04-.1-.07-.14c-.54-1.08-1.6-1.72-2.83-1.72s-2.21.64-2.76 1.72c-.02.05-.05.1-.07.14l-20.55 48.11c-.25.42-.39.9-.39 1.4 0 1.77 1.34 3.11 3.11 3.11 1.19 0 2.22-.65 2.76-1.73.02-.05.04-.09.06-.14l17.84-41.7 9.58 22.21-7.2 16.85c-.25.42-.38.9-.38 1.4 0 1.77 1.34 3.11 3.11 3.11 1.18 0 2.21-.64 2.75-1.72.03-.05.05-.1.07-.15l4.99-11.66 4.99 11.66s.04.09.06.14c.54 1.08 1.57 1.73 2.76 1.73 1.77 0 3.11-1.34 3.11-3.11 0-.5-.13-.98-.38-1.4l-7.2-16.85 9.58-22.21 17.84 41.7s.04.09.06.14c.54 1.08 1.57 1.73 2.76 1.73 1.77 0 3.11-1.34 3.11-3.11v-.15c0-.35-.07-.69-.21-1.01l-20.74-48.36ZM294.69 254.02s-.04-.1-.07-.14c-.54-1.08-1.6-1.72-2.83-1.72s-2.21.64-2.76 1.72c-.02.05-.05.1-.07.14l-20.56 48.12c-.25.42-.38.9-.38 1.4 0 1.77 1.34 3.11 3.11 3.11 1.19 0 2.22-.65 2.76-1.73.02-.05.04-.09.06-.14l17.84-41.69 17.91 41.7s.04.09.06.14c.54 1.08 1.57 1.73 2.76 1.73 1.77 0 3.11-1.34 3.11-3.11 0-.5-.13-.98-.38-1.4l-20.56-48.12ZM329.69 252.15h-6.89c-1.77 0-3.11 1.32-3.11 3.07s1.34 3.07 3.11 3.07h6.89c8.89 0 15.41 2.03 19.38 6.06 3.4 3.4 5.13 8.47 5.13 15.05s-1.73 11.65-5.14 15.06c-3.97 4.01-10.48 6.05-19.37 6.05h-6.89c-1.77 0-3.11 1.32-3.11 3.07s1.34 3.07 3.11 3.07h6.89c10.56 0 18.56-2.62 23.79-7.79 4.61-4.61 6.94-11.15 6.94-19.45s-2.34-14.85-6.95-19.46c-5.22-5.16-13.22-7.78-23.78-7.78ZM409.28 260.12c-5.4-5.29-12.03-7.97-19.71-7.97-5.04 0-9.66 1.24-13.74 3.69-4.07 2.45-7.27 5.8-9.52 9.95-2.23 4.13-3.37 8.7-3.37 13.6s1.13 9.47 3.37 13.6c2.25 4.16 5.45 7.51 9.52 9.95 4.08 2.45 8.7 3.69 13.74 3.69 7.68 0 14.31-2.68 19.71-7.97 5.41-5.3 8.16-11.79 8.16-19.28s-2.75-13.98-8.16-19.28Zm-19.71 40.39c-5.98 0-10.77-1.98-14.66-6.05-3.92-4.11-5.83-9.03-5.83-15.06s1.91-10.95 5.83-15.06c3.89-4.07 8.68-6.05 14.66-6.05s11.16 2.03 15.42 6.19c4.24 4.15 6.31 9.03 6.31 14.92s-2.06 10.77-6.31 14.92c-4.26 4.17-9.3 6.19-15.42 6.19ZM449.58 254.8c-.19-.38-.55-.59-1-.59-.4 0-.73.21-.94.62l-20.62 48.28c-.1.13-.15.28-.15.43 0 .64.41 1.05 1.06 1.05.4 0 .73-.22.94-.62l19.72-46.1 19.81 46.12c.19.38.52.59.92.59.64 0 1.05-.41 1.05-1.05 0-.11-.03-.27-.15-.43l-20.64-48.31Zm-1-.08ZM507.4 256.82c-3.16-1.74-7.09-2.62-11.7-2.62h-17.25c-.64 0-1.06.4-1.06 1.02s.41 1.02 1.06 1.02h17.25c4.22 0 7.84.81 10.74 2.41 3.68 2.04 5.46 5.14 5.46 9.49s-1.79 7.46-5.47 9.5c-2.9 1.65-6.51 2.49-10.73 2.49h-17.25c-.64 0-1.06.38-1.06.98v22.44c0 .64.4 1.05 1.02 1.05s1.02-.41 1.02-1.05v-21.38h16.28c4.61 0 8.55-.91 11.7-2.69 4.39-2.41 6.61-6.22 6.61-11.32s-2.22-8.91-6.61-11.32ZM551.03 256.82c-3.16-1.74-7.09-2.62-11.7-2.62h-17.25c-.64 0-1.06.4-1.06 1.02s.41 1.02 1.06 1.02h17.25c4.22 0 7.84.81 10.74 2.41 3.67 2.04 5.46 5.14 5.46 9.49s-1.79 7.46-5.47 9.5c-2.9 1.65-6.51 2.49-10.73 2.49h-17.25c-.64 0-1.06.38-1.06.98v22.44c0 .64.4 1.05 1.02 1.05s1.02-.41 1.02-1.05v-21.38h16.28c4.61 0 8.55-.91 11.7-2.69 4.39-2.41 6.61-6.22 6.61-11.32s-2.22-8.91-6.61-11.32ZM418.61 297.6c-2.07 0-3.74 1.67-3.74 3.74s1.67 3.74 3.74 3.74 3.74-1.67 3.74-3.74-1.67-3.74-3.74-3.74Z" style="stroke:none;stroke-width:0;stroke-dasharray:none;stroke-linecap:butt;stroke-dashoffset:0;stroke-linejoin:miter;stroke-miterlimit:4;fill:#fff;fill-rule:nonzero;opacity:1" transform="matrix(1.24 0 0 1.24 -51.51 -312.656)"/></g></svg>