<svg xmlns="http://www.w3.org/2000/svg" xml:space="preserve" width="2040.949" height="210.807" style="shape-rendering:geometricPrecision;text-rendering:geometricPrecision;image-rendering:optimizeQuality;fill-rule:evenodd;clip-rule:evenodd" viewBox="0 0 13341.08 1377.98"><path d="M688.64 17.78c-382.6 0-671.21 288.61-671.21 671.21 0 382.59 288.61 671.21 671.21 671.21 191.12 0 359.45-71.89 479.38-191.82 2.1-2.46 4.21-6.66 4.21-10.17 0-7.72-6.31-14.03-14.38-14.03-3.15 0-7.36 2.1-9.82 4.21-114.67 114.67-275.29 183.76-459.39 183.76-368.57 0-643.15-274.58-643.15-643.15S320.07 45.85 688.64 45.85c184.11 0 344.72 69.08 459.39 183.76 2.45 2.1 6.66 4.21 9.82 4.21 8.07 0 14.38-6.31 14.38-14.03 0-3.51-2.1-7.72-4.21-10.17C1048.09 89.69 879.76 17.8 688.64 17.8zm757-.35c-7.72.35-14.03 6.66-14.03 14.03V1346.17c0 7.72 6.31 13.33 14.03 13.33s14.03-5.61 14.03-13.33V703.02h910.72v643.5c0 7.72 6.31 14.03 14.03 14.03s14.03-6.31 14.03-14.03V31.46c0-7.72-6.31-14.03-14.03-14.03-7.72.35-14.03 6.66-14.03 14.03v643.5h-910.72V31.46c0-7.72-6.31-14.03-14.03-14.03zm1737.51.35c-4.91.35-10.52 4.21-12.62 8.77l-563.2 1313.31c-.7 1.75-1.4 4.56-1.4 5.96 0 8.07 6.31 14.38 14.03 14.38 5.26 0 11.22-4.21 13.33-9.12l550.22-1283.5 550.22 1283.5c2.1 4.91 8.07 9.12 13.33 9.12 7.72 0 14.03-6.31 14.03-14.38 0-1.4-.7-4.21-1.4-5.96L3196.49 26.55c-2.1-4.91-7.72-8.77-12.98-8.77h-.35zm1287.23 0c-4.91.35-10.52 4.21-12.27 8.77l-562.85 1313.31c-.7 1.75-1.4 4.56-1.4 5.96 0 8.07 6.31 14.38 14.03 14.38 5.26 0 11.22-4.21 13.33-9.12l549.87-1283.5 335.25 782.02-210.41 490.25c-.7 1.75-1.4 4.21-1.4 5.61 0 7.72 6.31 14.03 14.38 14.03 4.91 0 10.87-3.86 12.98-8.42l199.89-465.71 199.89 465.71c2.1 4.91 8.07 9.12 13.33 9.12 7.72 0 14.03-6.31 14.03-14.03 0-1.75-.7-4.56-1.4-6.31L4837.22 849.6l335.25-782.02 549.87 1283.5c2.1 4.56 8.07 8.42 12.98 8.42 8.07 0 14.38-6.31 14.38-14.03 0-1.4-.7-4.21-1.4-5.61L5185.45 26.55c-2.1-4.91-7.72-8.77-12.98-8.77h-.7c-4.91.35-10.52 4.21-12.27 8.77l-337.71 787.28-337.71-787.28c-2.1-4.91-8.07-8.77-12.98-8.77h-.7zm1991.4 0c-4.91.35-10.52 4.21-12.62 8.77l-563.2 1313.31c-.7 1.75-1.4 4.56-1.4 5.96 0 8.07 6.31 14.38 14.03 14.38 5.26 0 11.22-4.21 13.33-9.12l550.22-1283.5 550.22 1283.5c2.1 4.91 8.07 9.12 13.33 9.12 7.72 0 14.03-6.31 14.03-14.38 0-1.4-.7-4.21-1.4-5.96L6475.12 26.55c-2.1-4.91-7.72-8.77-12.98-8.77h-.35zm798.38 0c-8.07 0-14.38 6.31-14.38 13.68 0 7.36 6.31 13.67 14.38 13.67h187.61c279.14 0 462.55 69.44 576.87 183.76 113.97 114.32 159.91 274.24 159.91 460.1 0 185.51-45.94 345.77-159.91 460.1-114.32 114.32-297.73 183.76-576.87 183.76h-187.61c-8.07 0-14.38 6.31-14.38 13.68 0 7.36 6.31 13.68 14.38 13.68h187.61c284.05 0 475.88-70.49 596.51-191.12 120.98-120.99 167.63-289.66 167.63-480.09 0-190.42-46.64-359.1-167.63-480.09-120.64-120.63-312.46-191.12-596.51-191.12h-187.61zm1741.72 0c-382.95 0-655.08 301.24-655.08 671.21 0 369.62 272.13 671.21 655.08 671.21 382.6 0 687.34-300.54 687.34-671.21S9384.48 17.78 9001.88 17.78zm0 28.05c367.87 0 659.29 287.91 659.29 643.15 0 355.24-291.42 643.15-659.29 643.15-368.22 0-627.02-287.21-627.02-643.15s258.8-643.15 627.02-643.15zm1397.35-28.05c-4.91.35-10.52 4.21-12.62 8.77l-563.2 1313.31c-.7 1.75-1.4 4.56-1.4 5.96 0 8.07 6.31 14.38 14.03 14.38 5.26 0 11.22-4.21 13.33-9.12l550.22-1283.5 550.22 1283.5c2.1 4.91 8.07 9.12 13.33 9.12 7.72 0 14.03-6.31 14.03-14.38 0-1.4-.7-4.21-1.4-5.96l-563.2-1313.31c-2.1-4.91-7.72-8.77-12.98-8.77h-.35zm798.03 0c-7.36 0-13.68 6.31-13.68 13.68 0 7.36 6.31 13.67 13.68 13.67h469.22c92.23 0 207.96 16.13 298.43 66.63 90.83 50.5 157.11 132.56 157.11 271.08 0 138.87-66.28 221.28-157.11 272.13-90.83 50.85-206.2 67.68-298.43 67.68h-469.22c-7.36 0-13.68 6.31-13.68 13.68v609.49c0 8.07 6.31 14.38 13.68 14.38 7.36 0 13.68-6.31 13.68-14.38V750.01h455.54c95.73 0 214.97-16.13 312.11-70.14 97.49-54.71 170.78-149.04 170.78-297.03 0-147.99-73.64-241.62-170.78-295.63-97.14-53.66-216.37-69.44-312.11-69.44h-469.22zm1174.31 0c-7.36 0-13.68 6.31-13.68 13.68 0 7.36 6.31 13.67 13.68 13.67h469.22c92.23 0 207.96 16.13 298.43 66.63 90.83 50.5 157.11 132.56 157.11 271.08 0 138.87-66.28 221.28-157.11 272.13-90.83 50.85-206.2 67.68-298.43 67.68h-469.22c-7.36 0-13.68 6.31-13.68 13.68v609.49c0 8.07 6.31 14.38 13.68 14.38 7.36 0 13.68-6.31 13.68-14.38V750.01h455.54c95.73 0 214.97-16.13 312.11-70.14 97.49-54.71 170.78-149.04 170.78-297.03 0-147.99-73.64-241.62-170.78-295.63-97.14-53.66-216.37-69.44-312.11-69.44h-469.22z" style="fill:#fff;fill-rule:nonzero;stroke:#fff;stroke-width:34.86;stroke-miterlimit:22.9256"/><path d="M9725.01 1311.31c0-26.9-22.42-48.97-50.7-48.97-27.93 0-47.94 22.07-47.94 48.97 0 27.25 20 48.97 47.94 48.97 28.28 0 50.7-21.73 50.7-48.97z" style="fill:#fefefe;fill-rule:nonzero;stroke:#fefefe;stroke-width:1.88;stroke-miterlimit:22.9256"/></svg>